<svg width="200" height="200" viewBox="0 0 200 200" fill="none" xmlns="http://www.w3.org/2000/svg">
<path d="M40.4678 137.716C40.4678 137.716 56.6318 158.184 84.2558 159.016C111.88 159.848 136.584 142.616 156.964 129.208C177.344 115.8 184.032 93.336 173.856 74.808C163.68 56.28 145.216 62.628 123.056 49.608C100.896 36.588 96.9238 29.76 71.1998 30.928C45.4758 32.096 24.2158 59.568 25.1518 90.344C26.0878 121.12 40.4678 137.716 40.4678 137.716Z" fill="#006CFB"/>
<path opacity="0.7" d="M40.4678 137.716C40.4678 137.716 56.6318 158.184 84.2558 159.016C111.88 159.848 136.584 142.616 156.964 129.208C177.344 115.8 184.032 93.336 173.856 74.808C163.68 56.28 145.216 62.628 123.056 49.608C100.896 36.588 96.9238 29.76 71.1998 30.928C45.4758 32.096 24.2158 59.568 25.1518 90.344C26.0878 121.12 40.4678 137.716 40.4678 137.716Z" fill="white"/>
<path d="M45.4921 36.4321C45.4681 36.4321 45.7721 34.9401 45.8001 34.8321C46.1441 33.7641 47.4401 31.9081 48.6921 31.9121C48.9006 31.918 49.1056 31.9678 49.2936 32.0582C49.4816 32.1487 49.6484 32.2778 49.7832 32.4371C49.918 32.5964 50.0176 32.7823 50.0756 32.9827C50.1337 33.1831 50.1488 33.3935 50.1201 33.6001C50.0281 34.4801 49.2361 35.2321 48.5201 35.6641C47.6801 36.1881 45.4921 36.4321 45.4921 36.4321Z" fill="#006CFB"/>
<path d="M43.064 26.4001C44.264 26.8241 44.832 29.0081 44.792 30.1281C44.792 30.2241 44.568 31.7281 44.548 31.7281H44.524C44.616 32.0721 44.716 32.4441 44.816 32.8521C44.992 33.6041 45.184 34.4521 45.332 35.3961C45.5036 36.4073 45.6158 37.4277 45.668 38.4521C45.7318 39.5999 45.6929 40.7512 45.552 41.8921C45.5501 41.9054 45.5501 41.9188 45.552 41.9321C45.708 41.6001 46.172 40.6801 46.212 40.6161C46.828 39.6801 48.564 38.2161 49.776 38.5641C49.975 38.6248 50.1589 38.7268 50.3159 38.8633C50.4728 38.9999 50.5992 39.1681 50.6867 39.3568C50.7743 39.5455 50.8211 39.7506 50.8241 39.9586C50.827 40.1666 50.7861 40.373 50.704 40.5641C50.384 41.3881 49.424 41.9041 48.62 42.1321C47.712 42.3921 45.688 42.0881 45.528 42.0601C45.3569 43.2181 45.1084 44.3634 44.784 45.4881C44.5973 46.1441 44.3946 46.7988 44.176 47.4521C44.316 47.1681 44.448 46.9161 44.468 46.8841C45.084 45.9441 46.824 44.4841 48.032 44.8321C48.231 44.8928 48.4149 44.9948 48.5719 45.1313C48.7288 45.2679 48.8552 45.4361 48.9427 45.6248C49.0303 45.8135 49.0771 46.0186 49.0801 46.2266C49.083 46.4346 49.0421 46.641 48.96 46.8321C48.64 47.6561 47.68 48.1721 46.876 48.4001C46.072 48.6281 44.328 48.4001 43.872 48.3401L43.62 49.0921C43.22 50.2921 42.784 51.4921 42.42 52.6681C42.288 53.0681 42.172 53.5001 42.056 53.9161C42.184 53.6641 42.292 53.4521 42.312 53.4201C42.924 52.4841 44.664 51.0201 45.872 51.3681C46.0706 51.4294 46.2542 51.5317 46.4109 51.6683C46.5675 51.805 46.6939 51.9729 46.7817 52.1613C46.8695 52.3498 46.9168 52.5545 46.9207 52.7624C46.9245 52.9702 46.8848 53.1765 46.804 53.3681C46.484 54.1961 45.52 54.7081 44.716 54.9401C43.912 55.1721 42.34 54.9681 41.796 54.8921C41.688 55.3201 41.584 55.7481 41.5 56.1681C41.448 56.4601 41.38 56.7321 41.344 57.0241L41.224 57.8841C41.168 58.4321 41.104 58.9961 41.064 59.5321C41.032 59.9041 41.008 60.2601 40.984 60.6201C41.112 60.2201 41.384 59.3921 41.384 59.3281C41.8269 58.4481 42.488 57.6962 43.304 57.1441C43.3475 57.0422 43.4025 56.9455 43.468 56.8561C43.5812 56.6813 43.7301 56.5324 43.9048 56.4191C44.0795 56.3058 44.2762 56.2307 44.4819 56.1986C44.6877 56.1665 44.8979 56.1782 45.0988 56.2329C45.2998 56.2876 45.4869 56.3841 45.648 56.5161C46.6 57.3361 46.36 59.5841 45.924 60.6161C45.9 60.6761 45.544 61.3041 45.316 61.7001C45.488 61.4881 45.648 61.2801 45.828 61.0681C46.176 60.6401 46.536 60.2241 46.92 59.7761L47.508 59.1401C47.7 58.9241 47.932 58.7401 48.144 58.5041C48.644 58.0201 49.176 57.5521 49.724 57.0921C49.352 56.7881 48.04 55.6841 47.664 54.9321C47.288 54.1801 47.02 53.1281 47.412 52.3321C47.4982 52.1423 47.6233 51.9727 47.7793 51.8343C47.9352 51.6959 48.1185 51.5919 48.3173 51.5289C48.516 51.4659 48.7258 51.4454 48.933 51.4687C49.1402 51.492 49.3402 51.5586 49.52 51.6641C50.58 52.3321 50.688 54.5921 50.412 55.6641C50.412 55.7321 50.108 56.4881 49.944 56.9001C50.276 56.6281 50.604 56.3561 50.948 56.1001C51.94 55.3361 52.968 54.5881 53.988 53.8401L54.92 53.1521C54.788 53.0441 53.204 51.7641 52.78 50.9201C52.408 50.1721 52.136 49.1161 52.528 48.3241C52.6137 48.1338 52.7386 47.9638 52.8945 47.8251C53.0504 47.6863 53.2338 47.5821 53.4327 47.519C53.6316 47.456 53.8416 47.4356 54.049 47.4592C54.2563 47.4829 54.4563 47.5499 54.636 47.6561C55.7 48.3201 55.804 50.5801 55.528 51.6561C55.508 51.7361 55.096 52.8241 54.98 53.0961C55.66 52.5881 56.336 52.0761 56.98 51.5401C57.8562 50.8258 58.6846 50.0548 59.46 49.2321C59.4 49.1801 57.74 47.8521 57.308 46.9921C56.932 46.2441 56.664 45.1841 57.056 44.3921C57.1418 44.2024 57.2665 44.0329 57.4221 43.8945C57.5777 43.7562 57.7606 43.6521 57.9591 43.5891C58.1575 43.5261 58.367 43.5056 58.5739 43.5288C58.7808 43.5521 58.9805 43.6186 59.16 43.7241C60.224 44.3921 60.332 46.6521 60.056 47.7241C60.056 47.7961 59.724 48.6241 59.568 49.0161L59.628 49.0561C60.3857 48.2057 61.067 47.2902 61.664 46.3201C62 45.7881 62.288 45.2641 62.56 44.7481C62.224 44.5321 60.708 43.5281 60.232 42.7961C59.756 42.0641 59.396 41.0721 59.696 40.2401C59.7603 40.0418 59.8656 39.8592 60.0052 39.7043C60.1447 39.5494 60.3154 39.4257 60.5059 39.3412C60.6965 39.2566 60.9028 39.2132 61.1113 39.2137C61.3198 39.2142 61.5258 39.2586 61.716 39.3441C62.848 39.8921 63.2 42.1441 63.044 43.2361C63.044 43.2961 62.884 43.9001 62.768 44.3361C62.884 44.1001 63.012 43.8601 63.12 43.6321C63.52 42.7801 63.86 41.9721 64.14 41.2321C64.3 40.8321 64.432 40.4521 64.54 40.1001C64.32 39.7001 63.464 38.1641 63.38 37.3001C63.296 36.4361 63.432 35.3881 64.084 34.7881C64.2324 34.642 64.41 34.5288 64.6051 34.4558C64.8001 34.3829 65.0084 34.3518 65.2163 34.3646C65.4242 34.3774 65.627 34.4339 65.8117 34.5303C65.9963 34.6267 66.1586 34.7609 66.288 34.9241C67.04 35.9281 66.324 38.0761 65.676 38.9881C65.62 39.0681 64.6 40.1881 64.588 40.1881V40.1641C64.476 40.5041 64.356 40.8681 64.212 41.2601C63.948 41.9881 63.64 42.8041 63.244 43.6601C62.8253 44.5967 62.3539 45.5089 61.832 46.3921C61.2495 47.3828 60.5802 48.3198 59.832 49.1921L59.804 49.2241C60.116 49.0321 61.004 48.5201 61.08 48.4881C62.112 48.0481 64.36 47.8001 65.184 48.7441C65.3166 48.9048 65.4139 49.0915 65.4696 49.2923C65.5253 49.493 65.538 49.7032 65.5071 49.9093C65.4762 50.1153 65.4022 50.3125 65.29 50.488C65.1778 50.6635 65.0299 50.8135 64.856 50.9281C64.132 51.4401 63.048 51.3281 62.248 51.0881C61.348 50.8001 59.848 49.4321 59.712 49.3201C58.9307 50.1917 58.0915 51.0096 57.2 51.7681C56.684 52.2121 56.148 52.6441 55.6 53.0721C55.876 52.9121 56.124 52.7721 56.16 52.7561C57.188 52.3161 59.436 52.0681 60.26 53.0121C60.3932 53.1725 60.491 53.3592 60.5471 53.5601C60.6031 53.7609 60.616 53.9713 60.5851 54.1776C60.5541 54.3838 60.4799 54.5811 60.3674 54.7566C60.2548 54.9321 60.1064 55.0819 59.932 55.1961C59.212 55.7081 58.124 55.5961 57.328 55.3561C56.532 55.1161 55.2 53.9561 54.856 53.6481C54.644 53.8081 54.456 53.9721 54.228 54.1361C53.224 54.9041 52.228 55.6681 51.248 56.4521C50.908 56.7241 50.584 57.0081 50.256 57.2921L50.744 57.0201C51.772 56.5801 54.02 56.3281 54.844 57.2721C54.9767 57.4331 55.074 57.6202 55.1297 57.8212C55.1855 58.0223 55.1983 58.2328 55.1673 58.4392C55.1364 58.6455 55.0624 58.843 54.9502 59.0189C54.838 59.1948 54.69 59.3451 54.516 59.4601C53.796 59.9721 52.708 59.8601 51.912 59.6161C51.116 59.3721 49.912 58.3281 49.512 57.9641C49.188 58.2641 48.86 58.5641 48.56 58.8681C48.356 59.0801 48.16 59.2681 47.96 59.4961L47.384 60.1441C47.036 60.5721 46.672 61.0081 46.34 61.4321C46.108 61.7241 45.892 62.0081 45.676 62.2961C46.008 62.0161 46.68 61.4961 46.74 61.4481C47.688 60.8561 49.876 60.2481 50.832 61.0801C50.9869 61.2193 51.1108 61.3895 51.1956 61.5797C51.2805 61.7699 51.3243 61.9758 51.3243 62.1841C51.3243 62.3924 51.2805 62.5983 51.1956 62.7885C51.1108 62.9787 50.9869 63.1489 50.832 63.2881C50.192 63.9041 49.104 63.9681 48.28 63.8401C47.368 63.6961 45.72 62.6401 45.516 62.4881C45.156 62.9641 44.812 63.4241 44.492 63.8681C43.384 65.4001 42.52 66.7201 41.928 67.6481L41.868 67.7441L41.1 67.3721L41.22 67.1881C41.84 66.2601 42.744 64.9481 43.896 63.4281C44.26 62.9441 44.656 62.4361 45.068 61.9201C44.6395 61.4519 44.2388 60.9591 43.868 60.4441C42.984 60.7921 41.152 60.8041 40.912 60.8041C40.876 61.3961 40.844 61.9761 40.82 62.5201C40.74 64.4081 40.748 65.9841 40.768 67.0881V67.2161L39.924 66.8161C39.924 65.7201 39.968 64.2401 40.08 62.4881C40.116 61.8881 40.168 61.2441 40.228 60.5841C39.992 60.5241 38.084 60.0361 37.364 59.4601C36.712 58.9361 36.024 58.0921 36.048 57.2041C36.0464 56.9958 36.0887 56.7894 36.1721 56.5985C36.2555 56.4076 36.3781 56.2364 36.5321 56.0961C36.686 55.9557 36.8678 55.8493 37.0656 55.7839C37.2633 55.7184 37.4727 55.6953 37.68 55.7161C38.924 55.8761 39.968 57.8841 40.172 58.9841C40.172 59.0521 40.236 59.7841 40.26 60.2241C40.288 59.9561 40.308 59.6921 40.34 59.4241C40.392 58.8761 40.464 58.3321 40.54 57.7441C40.584 57.4601 40.632 57.1761 40.676 56.8881C40.72 56.6001 40.796 56.3041 40.856 56.0081C41.008 55.3281 41.192 54.6441 41.396 53.9601C40.916 53.9121 39.216 53.7121 38.488 53.2921C37.76 52.8721 36.952 52.1441 36.844 51.2641C36.8105 51.0583 36.8208 50.8477 36.8742 50.6461C36.9276 50.4445 37.0229 50.2564 37.1539 50.0942C37.2849 49.9319 37.4486 49.799 37.6343 49.7042C37.8201 49.6095 38.0237 49.5549 38.232 49.5441C39.484 49.5161 40.82 51.3401 41.188 52.4001C41.212 52.4641 41.392 53.2521 41.484 53.6881C41.608 53.2881 41.728 52.8681 41.884 52.4561C42.284 51.2561 42.736 50.0841 43.176 48.8961C43.312 48.5321 43.44 48.1681 43.576 47.8041C43.404 47.8041 41.376 47.5921 40.56 47.1241C39.836 46.7241 39.028 45.9761 38.916 45.0961C38.8832 44.8903 38.894 44.68 38.9476 44.4787C39.0013 44.2774 39.0966 44.0895 39.2274 43.9274C39.3583 43.7653 39.5217 43.6324 39.7072 43.5374C39.8926 43.4425 40.0959 43.3875 40.304 43.3761C41.56 43.3481 42.896 45.1721 43.264 46.2321C43.292 46.3121 43.548 47.4321 43.6 47.7361C43.888 46.9361 44.172 46.1361 44.4 45.3361C44.7383 44.2561 45.0055 43.155 45.2 42.0401C45.12 42.0401 43.004 41.8401 42.168 41.3601C41.44 40.9601 40.632 40.2121 40.524 39.3321C40.4905 39.1265 40.5008 38.9161 40.5543 38.7147C40.6077 38.5134 40.703 38.3255 40.834 38.1636C40.9651 38.0016 41.1288 37.8691 41.3146 37.7747C41.5003 37.6804 41.7039 37.6263 41.912 37.6161C43.164 37.5841 44.5 39.4081 44.868 40.4681C44.892 40.5361 45.092 41.4001 45.176 41.8161H45.244C45.4092 40.6894 45.4734 39.5502 45.436 38.4121C45.436 37.7841 45.376 37.1881 45.316 36.6081C44.916 36.6081 43.1 36.6081 42.3 36.2601C41.5 35.9121 40.648 35.2881 40.44 34.4281C40.3845 34.2266 40.3722 34.0157 40.4038 33.8092C40.4355 33.6027 40.5104 33.4051 40.6237 33.2295C40.737 33.054 40.8861 32.9043 41.0612 32.7903C41.2363 32.6763 41.4336 32.6006 41.64 32.5681C42.884 32.3961 44.412 34.0681 44.896 35.0761C44.92 35.1321 45.128 35.7201 45.268 36.1521C45.24 35.8881 45.212 35.6161 45.176 35.3521C45.052 34.4121 44.876 33.5601 44.716 32.8041C44.62 32.3761 44.528 32.0041 44.436 31.6321C44.036 31.4321 42.468 30.6081 41.932 29.9441C41.396 29.2801 40.916 28.3161 41.132 27.4601C41.1798 27.258 41.2695 27.0681 41.3953 26.9028C41.5211 26.7375 41.6802 26.6005 41.8623 26.5006C42.0444 26.4007 42.2455 26.3401 42.4525 26.3228C42.6595 26.3055 42.8678 26.3318 43.064 26.4001Z" fill="#006CFB"/>
<path d="M65.7361 45.716C64.7561 45.676 62.7961 44.672 62.7961 44.672C62.7961 44.672 63.8481 43.58 63.9241 43.52C64.8001 42.824 66.9041 41.988 67.9481 42.684C68.1188 42.8036 68.2623 42.9579 68.3692 43.1367C68.4761 43.3155 68.5441 43.5149 68.5687 43.7219C68.5932 43.9288 68.5738 44.1386 68.5116 44.3374C68.4495 44.5363 68.3461 44.7199 68.2081 44.876C67.6481 45.56 66.5721 45.752 65.7361 45.716Z" fill="#006CFB"/>
<g opacity="0.5">
<path opacity="0.5" d="M45.4921 36.4321C45.4681 36.4321 45.7721 34.9401 45.8001 34.8321C46.1441 33.7641 47.4401 31.9081 48.6921 31.9121C48.9006 31.918 49.1056 31.9678 49.2936 32.0582C49.4816 32.1487 49.6484 32.2778 49.7832 32.4371C49.918 32.5964 50.0176 32.7823 50.0756 32.9827C50.1337 33.1831 50.1488 33.3935 50.1201 33.6001C50.0281 34.4801 49.2361 35.2321 48.5201 35.6641C47.6801 36.1881 45.4921 36.4321 45.4921 36.4321Z" fill="white"/>
<path opacity="0.5" d="M43.064 26.4001C44.264 26.8241 44.832 29.0081 44.792 30.1281C44.792 30.2241 44.568 31.7281 44.548 31.7281H44.524C44.616 32.0721 44.716 32.4441 44.816 32.8521C44.992 33.6041 45.184 34.4521 45.332 35.3961C45.5036 36.4073 45.6158 37.4277 45.668 38.4521C45.7318 39.5999 45.6929 40.7512 45.552 41.8921C45.5501 41.9054 45.5501 41.9188 45.552 41.9321C45.708 41.6001 46.172 40.6801 46.212 40.6161C46.828 39.6801 48.564 38.2161 49.776 38.5641C49.975 38.6248 50.1589 38.7268 50.3159 38.8633C50.4728 38.9999 50.5992 39.1681 50.6867 39.3568C50.7743 39.5455 50.8211 39.7506 50.8241 39.9586C50.827 40.1666 50.7861 40.373 50.704 40.5641C50.384 41.3881 49.424 41.9041 48.62 42.1321C47.712 42.3921 45.688 42.0881 45.528 42.0601C45.3569 43.2181 45.1084 44.3634 44.784 45.4881C44.5973 46.1441 44.3946 46.7988 44.176 47.4521C44.316 47.1681 44.448 46.9161 44.468 46.8841C45.084 45.9441 46.824 44.4841 48.032 44.8321C48.231 44.8928 48.4149 44.9948 48.5719 45.1313C48.7288 45.2679 48.8552 45.4361 48.9427 45.6248C49.0303 45.8135 49.0771 46.0186 49.0801 46.2266C49.083 46.4346 49.0421 46.641 48.96 46.8321C48.64 47.6561 47.68 48.1721 46.876 48.4001C46.072 48.6281 44.328 48.4001 43.872 48.3401L43.62 49.0921C43.22 50.2921 42.784 51.4921 42.42 52.6681C42.288 53.0681 42.172 53.5001 42.056 53.9161C42.184 53.6641 42.292 53.4521 42.312 53.4201C42.924 52.4841 44.664 51.0201 45.872 51.3681C46.0706 51.4294 46.2542 51.5317 46.4109 51.6683C46.5675 51.805 46.6939 51.9729 46.7817 52.1613C46.8695 52.3498 46.9168 52.5545 46.9207 52.7624C46.9245 52.9702 46.8848 53.1765 46.804 53.3681C46.484 54.1961 45.52 54.7081 44.716 54.9401C43.912 55.1721 42.34 54.9681 41.796 54.8921C41.688 55.3201 41.584 55.7481 41.5 56.1681C41.448 56.4601 41.38 56.7321 41.344 57.0241L41.224 57.8841C41.168 58.4321 41.104 58.9961 41.064 59.5321C41.032 59.9041 41.008 60.2601 40.984 60.6201C41.112 60.2201 41.384 59.3921 41.384 59.3281C41.8269 58.4481 42.488 57.6962 43.304 57.1441C43.3475 57.0422 43.4025 56.9455 43.468 56.8561C43.5812 56.6813 43.7301 56.5324 43.9048 56.4191C44.0795 56.3058 44.2762 56.2307 44.4819 56.1986C44.6877 56.1665 44.8979 56.1782 45.0988 56.2329C45.2998 56.2876 45.4869 56.3841 45.648 56.5161C46.6 57.3361 46.36 59.5841 45.924 60.6161C45.9 60.6761 45.544 61.3041 45.316 61.7001C45.488 61.4881 45.648 61.2801 45.828 61.0681C46.176 60.6401 46.536 60.2241 46.92 59.7761L47.508 59.1401C47.7 58.9241 47.932 58.7401 48.144 58.5041C48.644 58.0201 49.176 57.5521 49.724 57.0921C49.352 56.7881 48.04 55.6841 47.664 54.9321C47.288 54.1801 47.02 53.1281 47.412 52.3321C47.4982 52.1423 47.6233 51.9727 47.7793 51.8343C47.9352 51.6959 48.1185 51.5919 48.3173 51.5289C48.516 51.4659 48.7258 51.4454 48.933 51.4687C49.1402 51.492 49.3402 51.5586 49.52 51.6641C50.58 52.3321 50.688 54.5921 50.412 55.6641C50.412 55.7321 50.108 56.4881 49.944 56.9001C50.276 56.6281 50.604 56.3561 50.948 56.1001C51.94 55.3361 52.968 54.5881 53.988 53.8401L54.92 53.1521C54.788 53.0441 53.204 51.7641 52.78 50.9201C52.408 50.1721 52.136 49.1161 52.528 48.3241C52.6137 48.1338 52.7386 47.9638 52.8945 47.8251C53.0504 47.6863 53.2338 47.5821 53.4327 47.519C53.6316 47.456 53.8416 47.4356 54.049 47.4592C54.2563 47.4829 54.4563 47.5499 54.636 47.6561C55.7 48.3201 55.804 50.5801 55.528 51.6561C55.508 51.7361 55.096 52.8241 54.98 53.0961C55.66 52.5881 56.336 52.0761 56.98 51.5401C57.8562 50.8258 58.6846 50.0548 59.46 49.2321C59.4 49.1801 57.74 47.8521 57.308 46.9921C56.932 46.2441 56.664 45.1841 57.056 44.3921C57.1418 44.2024 57.2665 44.0329 57.4221 43.8945C57.5777 43.7562 57.7606 43.6521 57.9591 43.5891C58.1575 43.5261 58.367 43.5056 58.5739 43.5288C58.7808 43.5521 58.9805 43.6186 59.16 43.7241C60.224 44.3921 60.332 46.6521 60.056 47.7241C60.056 47.7961 59.724 48.6241 59.568 49.0161L59.628 49.0561C60.3857 48.2057 61.067 47.2902 61.664 46.3201C62 45.7881 62.288 45.2641 62.56 44.7481C62.224 44.5321 60.708 43.5281 60.232 42.7961C59.756 42.0641 59.396 41.0721 59.696 40.2401C59.7603 40.0418 59.8656 39.8592 60.0052 39.7043C60.1447 39.5494 60.3154 39.4257 60.5059 39.3412C60.6965 39.2566 60.9028 39.2132 61.1113 39.2137C61.3198 39.2142 61.5258 39.2586 61.716 39.3441C62.848 39.8921 63.2 42.1441 63.044 43.2361C63.044 43.2961 62.884 43.9001 62.768 44.3361C62.884 44.1001 63.012 43.8601 63.12 43.6321C63.52 42.7801 63.86 41.9721 64.14 41.2321C64.3 40.8321 64.432 40.4521 64.54 40.1001C64.32 39.7001 63.464 38.1641 63.38 37.3001C63.296 36.4361 63.432 35.3881 64.084 34.7881C64.2324 34.642 64.41 34.5288 64.6051 34.4558C64.8001 34.3829 65.0084 34.3518 65.2163 34.3646C65.4242 34.3774 65.627 34.4339 65.8117 34.5303C65.9963 34.6267 66.1586 34.7609 66.288 34.9241C67.04 35.9281 66.324 38.0761 65.676 38.9881C65.62 39.0681 64.6 40.1881 64.588 40.1881V40.1641C64.476 40.5041 64.356 40.8681 64.212 41.2601C63.948 41.9881 63.64 42.8041 63.244 43.6601C62.8253 44.5967 62.3539 45.5089 61.832 46.3921C61.2495 47.3828 60.5802 48.3198 59.832 49.1921L59.804 49.2241C60.116 49.0321 61.004 48.5201 61.08 48.4881C62.112 48.0481 64.36 47.8001 65.184 48.7441C65.3166 48.9048 65.4139 49.0915 65.4696 49.2923C65.5253 49.493 65.538 49.7032 65.5071 49.9093C65.4762 50.1153 65.4022 50.3125 65.29 50.488C65.1778 50.6635 65.0299 50.8135 64.856 50.9281C64.132 51.4401 63.048 51.3281 62.248 51.0881C61.348 50.8001 59.848 49.4321 59.712 49.3201C58.9307 50.1917 58.0915 51.0096 57.2 51.7681C56.684 52.2121 56.148 52.6441 55.6 53.0721C55.876 52.9121 56.124 52.7721 56.16 52.7561C57.188 52.3161 59.436 52.0681 60.26 53.0121C60.3932 53.1725 60.491 53.3592 60.5471 53.5601C60.6031 53.7609 60.616 53.9713 60.5851 54.1776C60.5541 54.3838 60.4799 54.5811 60.3674 54.7566C60.2548 54.9321 60.1064 55.0819 59.932 55.1961C59.212 55.7081 58.124 55.5961 57.328 55.3561C56.532 55.1161 55.2 53.9561 54.856 53.6481C54.644 53.8081 54.456 53.9721 54.228 54.1361C53.224 54.9041 52.228 55.6681 51.248 56.4521C50.908 56.7241 50.584 57.0081 50.256 57.2921L50.744 57.0201C51.772 56.5801 54.02 56.3281 54.844 57.2721C54.9767 57.4331 55.074 57.6202 55.1297 57.8212C55.1855 58.0223 55.1983 58.2328 55.1673 58.4392C55.1364 58.6455 55.0624 58.843 54.9502 59.0189C54.838 59.1948 54.69 59.3451 54.516 59.4601C53.796 59.9721 52.708 59.8601 51.912 59.6161C51.116 59.3721 49.912 58.3281 49.512 57.9641C49.188 58.2641 48.86 58.5641 48.56 58.8681C48.356 59.0801 48.16 59.2681 47.96 59.4961L47.384 60.1441C47.036 60.5721 46.672 61.0081 46.34 61.4321C46.108 61.7241 45.892 62.0081 45.676 62.2961C46.008 62.0161 46.68 61.4961 46.74 61.4481C47.688 60.8561 49.876 60.2481 50.832 61.0801C50.9869 61.2193 51.1108 61.3895 51.1956 61.5797C51.2805 61.7699 51.3243 61.9758 51.3243 62.1841C51.3243 62.3924 51.2805 62.5983 51.1956 62.7885C51.1108 62.9787 50.9869 63.1489 50.832 63.2881C50.192 63.9041 49.104 63.9681 48.28 63.8401C47.368 63.6961 45.72 62.6401 45.516 62.4881C45.156 62.9641 44.812 63.4241 44.492 63.8681C43.384 65.4001 42.52 66.7201 41.928 67.6481L41.868 67.7441L41.1 67.3721L41.22 67.1881C41.84 66.2601 42.744 64.9481 43.896 63.4281C44.26 62.9441 44.656 62.4361 45.068 61.9201C44.6395 61.4519 44.2388 60.9591 43.868 60.4441C42.984 60.7921 41.152 60.8041 40.912 60.8041C40.876 61.3961 40.844 61.9761 40.82 62.5201C40.74 64.4081 40.748 65.9841 40.768 67.0881V67.2161L39.924 66.8161C39.924 65.7201 39.968 64.2401 40.08 62.4881C40.116 61.8881 40.168 61.2441 40.228 60.5841C39.992 60.5241 38.084 60.0361 37.364 59.4601C36.712 58.9361 36.024 58.0921 36.048 57.2041C36.0464 56.9958 36.0887 56.7894 36.1721 56.5985C36.2555 56.4076 36.3781 56.2364 36.5321 56.0961C36.686 55.9557 36.8678 55.8493 37.0656 55.7839C37.2633 55.7184 37.4727 55.6953 37.68 55.7161C38.924 55.8761 39.968 57.8841 40.172 58.9841C40.172 59.0521 40.236 59.7841 40.26 60.2241C40.288 59.9561 40.308 59.6921 40.34 59.4241C40.392 58.8761 40.464 58.3321 40.54 57.7441C40.584 57.4601 40.632 57.1761 40.676 56.8881C40.72 56.6001 40.796 56.3041 40.856 56.0081C41.008 55.3281 41.192 54.6441 41.396 53.9601C40.916 53.9121 39.216 53.7121 38.488 53.2921C37.76 52.8721 36.952 52.1441 36.844 51.2641C36.8105 51.0583 36.8208 50.8477 36.8742 50.6461C36.9276 50.4445 37.0229 50.2564 37.1539 50.0942C37.2849 49.9319 37.4486 49.799 37.6343 49.7042C37.8201 49.6095 38.0237 49.5549 38.232 49.5441C39.484 49.5161 40.82 51.3401 41.188 52.4001C41.212 52.4641 41.392 53.2521 41.484 53.6881C41.608 53.2881 41.728 52.8681 41.884 52.4561C42.284 51.2561 42.736 50.0841 43.176 48.8961C43.312 48.5321 43.44 48.1681 43.576 47.8041C43.404 47.8041 41.376 47.5921 40.56 47.1241C39.836 46.7241 39.028 45.9761 38.916 45.0961C38.8832 44.8903 38.894 44.68 38.9476 44.4787C39.0013 44.2774 39.0966 44.0895 39.2274 43.9274C39.3583 43.7653 39.5217 43.6324 39.7072 43.5374C39.8926 43.4425 40.0959 43.3875 40.304 43.3761C41.56 43.3481 42.896 45.1721 43.264 46.2321C43.292 46.3121 43.548 47.4321 43.6 47.7361C43.888 46.9361 44.172 46.1361 44.4 45.3361C44.7383 44.2561 45.0055 43.155 45.2 42.0401C45.12 42.0401 43.004 41.8401 42.168 41.3601C41.44 40.9601 40.632 40.2121 40.524 39.3321C40.4905 39.1265 40.5008 38.9161 40.5543 38.7147C40.6077 38.5134 40.703 38.3255 40.834 38.1636C40.9651 38.0016 41.1288 37.8691 41.3146 37.7747C41.5003 37.6804 41.7039 37.6263 41.912 37.6161C43.164 37.5841 44.5 39.4081 44.868 40.4681C44.892 40.5361 45.092 41.4001 45.176 41.8161H45.244C45.4092 40.6894 45.4734 39.5502 45.436 38.4121C45.436 37.7841 45.376 37.1881 45.316 36.6081C44.916 36.6081 43.1 36.6081 42.3 36.2601C41.5 35.9121 40.648 35.2881 40.44 34.4281C40.3845 34.2266 40.3722 34.0157 40.4038 33.8092C40.4355 33.6027 40.5104 33.4051 40.6237 33.2295C40.737 33.054 40.8861 32.9043 41.0612 32.7903C41.2363 32.6763 41.4336 32.6006 41.64 32.5681C42.884 32.3961 44.412 34.0681 44.896 35.0761C44.92 35.1321 45.128 35.7201 45.268 36.1521C45.24 35.8881 45.212 35.6161 45.176 35.3521C45.052 34.4121 44.876 33.5601 44.716 32.8041C44.62 32.3761 44.528 32.0041 44.436 31.6321C44.036 31.4321 42.468 30.6081 41.932 29.9441C41.396 29.2801 40.916 28.3161 41.132 27.4601C41.1798 27.258 41.2695 27.0681 41.3953 26.9028C41.5211 26.7375 41.6802 26.6005 41.8623 26.5006C42.0444 26.4007 42.2455 26.3401 42.4525 26.3228C42.6595 26.3055 42.8678 26.3318 43.064 26.4001Z" fill="white"/>
<path opacity="0.5" d="M65.7359 45.716C64.7559 45.676 62.7959 44.672 62.7959 44.672C62.7959 44.672 63.8479 43.58 63.9239 43.52C64.7999 42.824 66.9039 41.988 67.9479 42.684C68.1186 42.8036 68.262 42.9579 68.369 43.1367C68.4759 43.3155 68.5439 43.5149 68.5684 43.7219C68.593 43.9288 68.5735 44.1386 68.5114 44.3374C68.4493 44.5363 68.3459 44.7199 68.2079 44.876C67.6479 45.56 66.5719 45.752 65.7359 45.716Z" fill="white"/>
</g>
<path d="M54.292 70.2601C54.292 70.2601 48.344 55.9241 45.016 56.5481C41.688 57.1721 50.724 79.4041 50.724 79.4041C50.724 79.4041 40.26 59.6641 33.124 59.6641C25.988 59.6641 35.74 81.4801 44.8 88.7521C44.8 88.7521 30.528 73.3761 22.204 76.7001C13.88 80.0241 38.832 95.6001 38.832 95.6001C38.832 95.6001 24.324 91.0361 26 94.5721C27.676 98.1081 32.184 98.7241 32.184 98.7241L36 99.5561H56.8L60 98.3121C60 98.3121 73.32 91.6601 69.752 88.9601C66.184 86.2601 58.336 92.0761 58.336 92.0761C58.336 92.0761 71.892 77.1161 69.276 71.5081C66.66 65.9001 55.004 81.6881 55.004 81.6881C55.004 81.6881 64.52 61.5321 62.604 58.0001C60.688 54.4681 54.292 70.2601 54.292 70.2601Z" fill="#006CFB"/>
<path opacity="0.4" d="M54.292 70.2601C54.292 70.2601 48.344 55.9241 45.016 56.5481C41.688 57.1721 50.724 79.4041 50.724 79.4041C50.724 79.4041 40.26 59.6641 33.124 59.6641C25.988 59.6641 35.74 81.4801 44.8 88.7521C44.8 88.7521 30.528 73.3761 22.204 76.7001C13.88 80.0241 38.832 95.6001 38.832 95.6001C38.832 95.6001 24.324 91.0361 26 94.5721C27.676 98.1081 32.184 98.7241 32.184 98.7241L38.4 99.5561H55.2L60 98.3121C60 98.3121 73.32 91.6601 69.752 88.9601C66.184 86.2601 58.336 92.0761 58.336 92.0761C58.336 92.0761 71.892 77.1161 69.276 71.5081C66.66 65.9001 55.004 81.6881 55.004 81.6881C55.004 81.6881 64.52 61.5321 62.604 58.0001C60.688 54.4681 54.292 70.2601 54.292 70.2601Z" fill="white"/>
<path d="M56.1961 71.0161C50.9641 86.4761 50.9641 97.4161 50.9641 97.4161C50.9641 97.4161 57.1481 97.6561 63.5681 92.8961" stroke="#263238" stroke-linecap="round" stroke-linejoin="round"/>
<path d="M53.5999 79.3402C52.5203 74.7187 51.0881 70.1868 49.3159 65.7842" stroke="#263238" stroke-linecap="round" stroke-linejoin="round"/>
<path d="M38.1201 70.3L51.4361 90.044C51.4361 90.044 60.4761 82.444 63.5681 78.152" stroke="#263238" stroke-linecap="round" stroke-linejoin="round"/>
<path d="M51.2 94.8002C51.2 94.8002 37.168 88.1402 31.46 84.3362" stroke="#263238" stroke-linecap="round" stroke-linejoin="round"/>
<path d="M93.444 38.252H90.552V158.768H93.444V38.252Z" fill="#C2C2C2" stroke="#ABABAB" stroke-linecap="round" stroke-linejoin="round"/>
<path d="M41.4198 38.252H38.5278V158.768H41.4198V38.252Z" fill="#C2C2C2" stroke="#ABABAB" stroke-linecap="round" stroke-linejoin="round"/>
<path d="M67.4318 38.252H64.5398V158.768H67.4318V38.252Z" fill="#C2C2C2" stroke="#ABABAB" stroke-linecap="round" stroke-linejoin="round"/>
<path d="M119.452 38.252H116.56V158.768H119.452V38.252Z" fill="#C2C2C2" stroke="#ABABAB" stroke-linecap="round" stroke-linejoin="round"/>
<path d="M118.584 42.0078H37.5959V47.4998H118.584V42.0078Z" fill="#C2C2C2" stroke="#ABABAB" stroke-linecap="round" stroke-linejoin="round"/>
<path d="M118.584 42.0078H66.4641V47.4998H118.584V42.0078Z" fill="#A6A6A6" stroke="#ABABAB" stroke-linecap="round" stroke-linejoin="round"/>
<path d="M118.584 97.3079H37.5959V102.8H118.584V97.3079Z" fill="#C2C2C2" stroke="#ABABAB" stroke-linecap="round" stroke-linejoin="round"/>
<path d="M118.584 97.3079H66.4641V102.8H118.584V97.3079Z" fill="#A6A6A6" stroke="#ABABAB" stroke-linecap="round" stroke-linejoin="round"/>
<path d="M118.584 152.604H37.5959V158.096H118.584V152.604Z" fill="#C2C2C2" stroke="#ABABAB" stroke-linecap="round" stroke-linejoin="round"/>
<path d="M118.584 152.604H66.4641V158.096H118.584V152.604Z" fill="#A6A6A6" stroke="#ABABAB" stroke-linecap="round" stroke-linejoin="round"/>
<path d="M66.476 123.12H24.092V158.724H66.476V123.12Z" fill="#006CFB"/>
<path opacity="0.6" d="M66.476 123.12H24.092V158.724H66.476V123.12Z" fill="white" stroke="#696969" stroke-linecap="round" stroke-linejoin="round"/>
<path d="M66.476 123.12H24.092V158.724H66.476V123.12Z" stroke="#696969" stroke-linecap="round" stroke-linejoin="round"/>
<path d="M66.4761 123.12H52.3921V158.724H66.4761V123.12Z" fill="#006CFB"/>
<path opacity="0.39" d="M66.4761 123.12H52.3921V158.724H66.4761V123.12Z" fill="white" stroke="#696969" stroke-linecap="round" stroke-linejoin="round"/>
<path d="M66.4761 123.12H52.3921V158.724H66.4761V123.12Z" stroke="#696969" stroke-linecap="round" stroke-linejoin="round"/>
<path d="M59.5801 123.216V158.768" stroke="#696969" stroke-linecap="round" stroke-linejoin="round"/>
<path d="M68.6159 87.572H26.2319V123.176H68.6159V87.572Z" fill="#006CFB"/>
<path opacity="0.6" d="M68.6159 87.572H26.2319V123.176H68.6159V87.572Z" fill="white" stroke="#696969" stroke-linecap="round" stroke-linejoin="round"/>
<path d="M68.6159 87.572H26.2319V123.176H68.6159V87.572Z" stroke="#696969" stroke-linecap="round" stroke-linejoin="round"/>
<path d="M68.616 87.572H54.532V123.176H68.616V87.572Z" fill="#006CFB"/>
<path opacity="0.39" d="M68.616 87.572H54.532V123.176H68.616V87.572Z" fill="white" stroke="#696969" stroke-linecap="round" stroke-linejoin="round"/>
<path d="M68.616 87.572H54.532V123.176H68.616V87.572Z" stroke="#696969" stroke-linecap="round" stroke-linejoin="round"/>
<path d="M61.72 87.668V123.22" stroke="#696969" stroke-linecap="round" stroke-linejoin="round"/>
<path d="M178.912 123.12H136.528V158.724H178.912V123.12Z" fill="#006CFB"/>
<path opacity="0.6" d="M178.912 123.12H136.528V158.724H178.912V123.12Z" fill="white" stroke="#919191" stroke-linecap="round" stroke-linejoin="round"/>
<path d="M178.912 123.12H136.528V158.724H178.912V123.12Z" stroke="#919191" stroke-linecap="round" stroke-linejoin="round"/>
<path d="M178.912 123.12H164.828V158.724H178.912V123.12Z" fill="#006CFB"/>
<path opacity="0.39" d="M178.912 123.12H164.828V158.724H178.912V123.12Z" fill="white" stroke="#919191" stroke-linecap="round" stroke-linejoin="round"/>
<path d="M178.912 123.12H164.828V158.724H178.912V123.12Z" stroke="#919191" stroke-linecap="round" stroke-linejoin="round"/>
<path d="M172.016 123.216V158.768" stroke="#919191" stroke-linecap="round" stroke-linejoin="round"/>
<path d="M178.912 87.48H136.528V123.084H178.912V87.48Z" fill="#006CFB"/>
<path opacity="0.6" d="M178.912 87.48H136.528V123.084H178.912V87.48Z" fill="white" stroke="#919191" stroke-linecap="round" stroke-linejoin="round"/>
<path d="M178.912 87.48H136.528V123.084H178.912V87.48Z" stroke="#919191" stroke-linecap="round" stroke-linejoin="round"/>
<path d="M178.912 87.48H164.828V123.084H178.912V87.48Z" fill="#006CFB"/>
<path opacity="0.39" d="M178.912 87.48H164.828V123.084H178.912V87.48Z" fill="white" stroke="#919191" stroke-linecap="round" stroke-linejoin="round"/>
<path d="M178.912 87.48H164.828V123.084H178.912V87.48Z" stroke="#919191" stroke-linecap="round" stroke-linejoin="round"/>
<path d="M172.016 87.5759V123.128" stroke="#919191" stroke-linecap="round" stroke-linejoin="round"/>
<path d="M175.188 58H140.128V87.452H175.188V58Z" fill="#006CFB"/>
<path opacity="0.6" d="M175.188 58H140.128V87.452H175.188V58Z" fill="white" stroke="#919191" stroke-linecap="round" stroke-linejoin="round"/>
<path d="M175.188 58H140.128V87.452H175.188V58Z" stroke="#919191" stroke-linecap="round" stroke-linejoin="round"/>
<path d="M175.188 58H163.54V87.452H175.188V58Z" fill="#006CFB"/>
<path opacity="0.39" d="M175.188 58H163.54V87.452H175.188V58Z" fill="white" stroke="#919191" stroke-linecap="round" stroke-linejoin="round"/>
<path d="M175.188 58H163.54V87.452H175.188V58Z" stroke="#919191" stroke-linecap="round" stroke-linejoin="round"/>
<path d="M169.484 58.0798V87.4878" stroke="#919191" stroke-linecap="round" stroke-linejoin="round"/>
<path d="M170.704 145.34H165.212V148.776H170.704V145.34Z" fill="white" stroke="#263238" stroke-linecap="round" stroke-linejoin="round"/>
<path d="M119.024 158.768C120.858 158.768 122.344 157.281 122.344 155.448C122.344 153.614 120.858 152.128 119.024 152.128C117.191 152.128 115.704 153.614 115.704 155.448C115.704 157.281 117.191 158.768 119.024 158.768Z" fill="#263238" stroke="#263238" stroke-linecap="round" stroke-linejoin="round"/>
<path d="M173.656 100.496H171.696V155.524H173.656V100.496Z" fill="#263238" stroke="#263238" stroke-linecap="round" stroke-linejoin="round"/>
<path d="M172.612 119.744L167.976 116.056C166.004 114.485 164.525 112.38 163.715 109.992C162.904 107.605 162.796 105.035 163.404 102.588C163.583 101.874 163.994 101.239 164.574 100.785C165.153 100.331 165.868 100.083 166.604 100.08H178.604C179.341 100.081 180.056 100.329 180.635 100.783C181.215 101.238 181.627 101.873 181.804 102.588C182.413 105.034 182.306 107.604 181.496 109.992C180.686 112.38 179.208 114.484 177.236 116.056L172.612 119.744ZM166.612 101.956C166.292 101.955 165.98 102.061 165.728 102.259C165.475 102.456 165.296 102.733 165.22 103.044C164.697 105.141 164.789 107.344 165.483 109.391C166.177 111.438 167.445 113.242 169.136 114.588L172.604 117.348L176.076 114.588C177.767 113.242 179.036 111.438 179.732 109.392C180.428 107.345 180.521 105.142 180 103.044C179.923 102.733 179.744 102.457 179.492 102.26C179.239 102.062 178.928 101.955 178.608 101.956H166.612Z" fill="#263238"/>
<path d="M161.104 147.06H100.412V154.124H161.104V147.06Z" fill="white"/>
<path opacity="0.28" d="M161.104 147.06H100.412V154.124H161.104V147.06Z" fill="black" stroke="#263238" stroke-linecap="round" stroke-linejoin="round"/>
<path d="M161.104 147.06H100.412V154.124H161.104V147.06Z" stroke="#263238" stroke-linecap="round" stroke-linejoin="round"/>
<path d="M107.212 147.06H100.412V154.124H107.212V147.06Z" stroke="#263238" stroke-linecap="round" stroke-linejoin="round"/>
<path d="M161.1 147.06H154.3V154.124H161.1V147.06Z" stroke="#263238" stroke-linecap="round" stroke-linejoin="round"/>
<path d="M134.156 147.06H127.356V154.124H134.156V147.06Z" stroke="#263238" stroke-linecap="round" stroke-linejoin="round"/>
<path d="M161.104 154.124H165.288L170.52 134.24H166.336L161.104 154.124Z" fill="white" stroke="#263238" stroke-linecap="round" stroke-linejoin="round"/>
<path d="M175.424 142.612H169.932V151.508H175.424V142.612Z" fill="white" stroke="#263238" stroke-linecap="round" stroke-linejoin="round"/>
<path d="M171.332 158.768C171.021 158.763 170.724 158.637 170.503 158.416C170.283 158.196 170.157 157.899 170.152 157.588V153.16C170.157 152.848 170.283 152.551 170.503 152.331C170.724 152.111 171.021 151.985 171.332 151.98C171.643 151.985 171.941 152.111 172.161 152.331C172.381 152.551 172.507 152.848 172.512 153.16V157.6C172.504 157.909 172.377 158.203 172.157 158.421C171.937 158.638 171.641 158.763 171.332 158.768Z" fill="#263238"/>
<path d="M174.136 158.768C173.825 158.763 173.528 158.637 173.307 158.416C173.087 158.196 172.961 157.899 172.956 157.588V153.16C172.961 152.848 173.087 152.551 173.307 152.331C173.528 152.111 173.825 151.985 174.136 151.98C174.451 151.98 174.753 152.103 174.978 152.324C175.202 152.545 175.331 152.845 175.336 153.16V157.6C175.328 157.912 175.198 158.209 174.973 158.428C174.749 158.646 174.449 158.768 174.136 158.768Z" fill="#263238"/>
<path d="M18.728 158.768H184.252" stroke="#263238" stroke-linecap="round" stroke-linejoin="round"/>
<path d="M75.8359 170.324C91.7948 170.324 104.732 168.751 104.732 166.812C104.732 164.872 91.7948 163.3 75.8359 163.3C59.8771 163.3 46.9399 164.872 46.9399 166.812C46.9399 168.751 59.8771 170.324 75.8359 170.324Z" fill="#006CFB"/>
<path opacity="0.5" d="M75.8359 170.324C91.7948 170.324 104.732 168.751 104.732 166.812C104.732 164.872 91.7948 163.3 75.8359 163.3C59.8771 163.3 46.9399 164.872 46.9399 166.812C46.9399 168.751 59.8771 170.324 75.8359 170.324Z" fill="white"/>
<path d="M135.632 166.8C135.632 167.768 129.18 168.552 121.232 168.552C113.284 168.552 106.832 167.752 106.832 166.8C106.832 165.848 113.28 165.052 121.232 165.052C129.184 165.052 135.632 165.848 135.632 166.8Z" fill="#006CFB"/>
<path opacity="0.5" d="M135.632 166.8C135.632 167.768 129.18 168.552 121.232 168.552C113.284 168.552 106.832 167.752 106.832 166.8C106.832 165.848 113.28 165.052 121.232 165.052C129.184 165.052 135.632 165.848 135.632 166.8Z" fill="white"/>
<path d="M81.5999 51.1158C81.5999 51.1158 79.3639 49.3598 76.7999 50.2358C74.2359 51.1118 72.2919 55.3838 71.5999 58.8558C70.9079 62.3278 68.2479 64.9598 68.8879 69.0318C69.5279 73.1038 74.1559 73.7398 79.7439 74.3398C85.3319 74.9398 88.3639 74.2598 90.9959 70.5878C93.6279 66.9158 92.5119 62.4478 90.9559 58.4958C89.3999 54.5438 86.8079 50.8758 84.6519 50.1958C82.4959 49.5158 81.5999 51.1158 81.5999 51.1158Z" fill="#263238" stroke="#263238" stroke-linecap="round" stroke-linejoin="round"/>
<path d="M72.3599 72C72.7372 72.1697 73.1296 72.3036 73.5319 72.4" stroke="white" stroke-linecap="round" stroke-linejoin="round"/>
<path d="M81.0399 53.9597C80.1285 55.9959 78.9734 57.9139 77.5999 59.6717C75.3119 62.6117 70.2519 65.3877 69.9279 68.4717C69.8758 68.8846 69.912 69.3039 70.0341 69.7017C70.1561 70.0996 70.3612 70.467 70.6359 70.7797" stroke="white" stroke-linecap="round" stroke-linejoin="round"/>
<path d="M90.3239 68.708C90.1585 69.0952 89.9463 69.4606 89.6919 69.796" stroke="white" stroke-linecap="round" stroke-linejoin="round"/>
<path d="M88.3999 60.98C88.3999 60.98 90.9719 63.948 90.7239 67.116" stroke="white" stroke-linecap="round" stroke-linejoin="round"/>
<path d="M80.552 52.3239C79.5495 52.2219 78.5372 52.3615 77.5998 52.731C76.6624 53.1006 75.8271 53.6893 75.164 54.4479C75.072 54.5519 74.988 54.6559 74.908 54.7599" stroke="white" stroke-linecap="round" stroke-linejoin="round"/>
<path d="M65.796 127.72L65.296 135.416C65.296 135.416 63.168 145.74 62.496 149.996C61.824 154.252 60.592 160.724 60.368 160.724C60.144 160.724 56.472 162.944 55.296 164.756C54.12 166.568 55.612 167.336 57.244 166.756C58.876 166.176 61.092 164.536 61.816 162.588C62.54 160.64 62.9 159.916 62.948 159.6C62.996 159.284 70.736 138.504 71.504 136.284C72.272 134.064 73.904 127.544 73.904 127.544L77.708 114.64C77.708 114.64 81.78 127.908 81.828 128.496C81.876 129.084 86.036 162.996 86.228 164.264C86.42 165.532 86.364 166.436 87.132 166.708C87.9 166.98 89.712 166.98 90.664 166.98C91.616 166.98 94.92 167.48 96.548 167.072C98.176 166.664 98.36 166.392 97.228 165.576C96.096 164.76 89.808 164.24 89.228 161.864C89.18 161.684 89.136 126.776 89.136 126.776C89.136 126.776 88.592 115.232 87.688 111.976H66.768L65.796 127.72Z" fill="white" stroke="#263238" stroke-linecap="round" stroke-linejoin="round"/>
<path d="M57.2398 166.748C58.8678 166.156 61.0878 164.528 61.8118 162.58L61.9638 162.18C61.0398 163.164 59.5638 164.532 59.5638 164.532C59.4734 164.068 59.2716 163.633 58.9758 163.264C58.8468 163.121 58.6815 163.017 58.4976 162.961C58.3137 162.905 58.1181 162.901 57.9318 162.948L59.5318 161.188C58.3318 161.932 56.1718 163.452 55.3238 164.76C54.1118 166.564 55.5998 167.336 57.2398 166.748Z" fill="#263238" stroke="#263238" stroke-linecap="round" stroke-linejoin="round"/>
<path d="M97.1999 165.568C96.4239 165.012 93.2359 164.592 91.1079 163.62C91.0201 163.694 90.9515 163.789 90.9079 163.896C90.7728 164.279 90.6672 164.672 90.5919 165.072L86.1919 164.132V164.256C86.3719 165.524 86.3279 166.428 87.0959 166.7C87.8639 166.972 89.6759 166.972 90.6279 166.972C91.5799 166.972 94.8839 167.472 96.5119 167.064C98.1399 166.656 98.3479 166.4 97.1999 165.568Z" fill="#263238" stroke="#263238" stroke-linecap="round" stroke-linejoin="round"/>
<path d="M71.8919 93.2C71.8919 93.2 69.8159 94.156 67.3039 98.668C64.5559 103.592 65.0279 106.328 64.9879 112.268C64.9479 118.208 64.8279 128.068 64.8279 128.068C64.8279 128.068 72.4279 130.104 77.8799 129.784C83.3319 129.464 90.2479 128.228 90.2479 128.228C90.2479 128.228 88.7719 108.116 87.3759 102.332C85.9799 96.548 85.1399 93.932 85.1399 93.932C82.4418 94.3064 79.7078 94.3467 76.9999 94.052C72.3719 93.6 71.8919 93.2 71.8919 93.2Z" fill="#263238" stroke="#263238" stroke-linecap="round" stroke-linejoin="round"/>
<path d="M80.636 110.988C80.844 111.672 81.036 112.364 81.204 113.056" stroke="white" stroke-linecap="round" stroke-linejoin="round"/>
<path d="M75.8159 99.6677C77.4273 102.641 78.8099 105.733 79.9519 108.916" stroke="white" stroke-linecap="round" stroke-linejoin="round"/>
<path d="M122.848 89.3757C122.608 89.2157 118.676 88.5997 118.676 88.5997L117.908 88.2837C117.908 88.2837 122.668 88.6637 122.708 88.4637C122.748 88.2637 122.908 88.0237 122.588 87.9837C122.268 87.9437 116.144 86.6997 116.144 86.6997C116.144 86.6997 117.7 85.2277 117.9 84.9077C118.1 84.5877 118.376 83.9477 118.056 83.9477C117.736 83.9477 117.656 84.1477 117.22 84.4277C116.784 84.7077 115.064 85.3877 114.584 85.7837C114.104 86.1797 112.672 87.2197 112.672 87.2197L96.0399 84.9317C96.0399 84.9317 90.1999 77.7317 88.9319 76.1957C88.0505 75.1707 87.047 74.2572 85.9439 73.4757C84.7199 72.9357 84.7439 73.8397 84.7439 73.8397L87.2999 85.1997C87.2999 85.1997 93.9119 89.1397 94.3199 89.1397C94.7279 89.1397 112.592 89.7317 112.592 89.7317C112.592 89.7317 113.792 90.2917 114.544 90.7677C115.296 91.2437 120.092 92.7677 120.092 92.7677C120.092 92.7677 120.412 92.6077 120.052 92.3277C119.692 92.0477 117.38 90.9317 117.38 90.9317L122.18 91.9717C122.18 91.9717 122.46 91.7717 122.34 91.5717C122.22 91.3717 117.94 89.7357 117.94 89.7357L122.74 89.9757C122.74 89.9757 123.084 89.5357 122.848 89.3757Z" fill="white" stroke="#263238" stroke-linecap="round" stroke-linejoin="round"/>
<path d="M95.0359 83.6957C93.3119 81.5717 89.8679 77.3317 88.9319 76.1957C88.0505 75.1707 87.047 74.2572 85.9439 73.4757C84.7199 72.9357 84.7439 73.8397 84.7439 73.8397L87.2999 85.1997C87.2999 85.1997 90.2839 86.9757 92.3639 88.1437L95.0359 83.6957Z" fill="white" stroke="#263238" stroke-linecap="round" stroke-linejoin="round"/>
<path d="M77.3599 72.5038C77.3599 72.5038 73.8879 72.6638 71.7599 75.0198C69.6319 77.3758 69.8839 82.5598 70.7639 85.6718C71.6439 88.7838 72.7639 90.4998 72.5199 91.5798C72.2759 92.6598 71.4039 93.0158 71.8799 94.0118C72.3559 95.0078 75.1119 96.0878 79.9799 95.9278C84.8479 95.7678 85.7679 94.7278 85.8079 93.8158C85.8479 92.9038 85.4879 92.1398 85.6079 91.5798C85.7279 91.0198 89.2399 87.9078 89.2399 84.4758C89.2399 81.0438 87.7239 79.8478 87.3639 77.3718C87.0039 74.8958 87.1239 74.5398 85.6479 73.4598C84.1719 72.3798 79.3159 71.8238 77.3599 72.5038Z" fill="white" stroke="#263238" stroke-linecap="round" stroke-linejoin="round"/>
<path d="M75.7838 84.3999C74.6234 85.3709 73.3354 86.1785 71.9558 86.7999" stroke="#263238" stroke-linecap="round" stroke-linejoin="round"/>
<path d="M76.168 84.7998C76.168 84.7998 75.308 87.5758 73.2 89.1078" stroke="#263238" stroke-linecap="round" stroke-linejoin="round"/>
<path d="M84.7839 75.0159L85.1839 78.8479L83.5039 76.8919L84.7839 75.0159Z" fill="white" stroke="#263238" stroke-linecap="round" stroke-linejoin="round"/>
<path d="M82.5479 79.168L84.7839 75.016L82.7479 72.824L82.5479 79.168Z" fill="white" stroke="#263238" stroke-linecap="round" stroke-linejoin="round"/>
<path d="M78.24 65.7197C78.5886 67.1032 78.762 68.525 78.756 69.9517C78.7443 70.8755 78.6506 71.7965 78.476 72.7037L82.548 79.1677L83.704 73.1677L84.464 69.0157C84.464 69.0157 79.836 68.7517 78.24 65.7197Z" fill="white" stroke="#263238" stroke-linecap="round" stroke-linejoin="round"/>
<path d="M82.3081 75.6958L82.548 79.1678L81.3521 77.2918L82.3081 75.6958Z" fill="white" stroke="#263238" stroke-linecap="round" stroke-linejoin="round"/>
<path d="M77.1199 72.5436L80.8319 79.2076L82.3079 75.6956L78.3599 70.2676L77.1199 72.5436Z" fill="white" stroke="#263238" stroke-linecap="round" stroke-linejoin="round"/>
<path d="M142.152 75.6516H108.468V103.292H142.152V75.6516Z" fill="#006CFB"/>
<path opacity="0.2" d="M142.152 75.6516H108.468V103.292H142.152V75.6516Z" fill="black"/>
<path d="M142.152 75.6516H108.468V103.292H142.152V75.6516Z" stroke="#263238" stroke-linecap="round" stroke-linejoin="round"/>
<path d="M135.02 75.6516H101.336V103.292H135.02V75.6516Z" fill="#006CFB" stroke="#263238" stroke-linecap="round" stroke-linejoin="round"/>
<path d="M147.7 112.596C146.62 110.884 142.152 103.292 142.152 103.292H135.024L138.692 112.596H147.7Z" fill="#006CFB"/>
<path opacity="0.2" d="M147.7 112.596C146.62 110.884 142.152 103.292 142.152 103.292H135.024L138.692 112.596H147.7Z" fill="black"/>
<path d="M147.7 112.596C146.62 110.884 142.152 103.292 142.152 103.292H135.024L138.692 112.596H147.7Z" stroke="#263238" stroke-linecap="round" stroke-linejoin="round"/>
<path d="M95.7678 112.596C96.8478 110.884 101.312 103.292 101.312 103.292H108.444L104.776 112.596H95.7678Z" fill="#006CFB" stroke="#263238" stroke-linecap="round" stroke-linejoin="round"/>
<path d="M101.312 103.292L98.2119 112.596H133.392L135.024 103.292H101.312Z" fill="#006CFB" stroke="#263238" stroke-linecap="round" stroke-linejoin="round"/>
<path d="M146.488 85.6516V94.9076" stroke="#263238" stroke-linecap="round" stroke-linejoin="round"/>
<path d="M148.24 89.6558V97.1598" stroke="#263238" stroke-linecap="round" stroke-linejoin="round"/>
<path d="M97.7161 94.908V100.66" stroke="#263238" stroke-linecap="round" stroke-linejoin="round"/>
<path d="M96.2161 98.1597V102.66" stroke="#263238" stroke-linecap="round" stroke-linejoin="round"/>
<path d="M71.5718 82.4398C72.7655 83.7918 74.1509 84.9615 75.6838 85.9118C78.0838 87.3478 86.8838 92.3358 87.5758 92.6158C88.2678 92.8958 109.284 89.4638 109.284 89.4638C109.284 89.4638 110.484 90.0238 111.24 90.4998C111.996 90.9758 116.788 92.4998 116.788 92.4998C116.788 92.4998 117.108 92.3398 116.748 92.0638C116.388 91.7878 114.076 90.6638 114.076 90.6638L118.876 91.7038C118.876 91.7038 119.156 91.5038 119.036 91.3038C118.916 91.1038 114.636 89.4678 114.636 89.4678L119.436 89.7078C119.436 89.7078 119.796 89.2678 119.556 89.1078C119.316 88.9478 114.4 87.8278 114.4 87.8278C114.4 87.8278 119.628 87.3878 119.668 87.1878C119.708 86.9878 119.868 86.7518 119.548 86.7118C119.228 86.6718 112.684 86.0318 112.684 86.0318C112.684 86.0318 114.4 84.9558 114.6 84.6358C114.8 84.3158 115.08 83.6758 114.76 83.6758C114.44 83.6758 114.36 83.8758 113.924 84.1558C113.488 84.4358 111.768 85.1158 111.288 85.5118C110.808 85.9078 109.372 86.9518 109.372 86.9518L90.1398 86.9918L78.1998 77.5718" fill="white"/>
<path d="M71.5718 82.4398C72.7655 83.7918 74.1509 84.9615 75.6838 85.9118C78.0838 87.3478 86.8838 92.3358 87.5758 92.6158C88.2678 92.8958 109.284 89.4638 109.284 89.4638C109.284 89.4638 110.484 90.0238 111.24 90.4998C111.996 90.9758 116.788 92.4998 116.788 92.4998C116.788 92.4998 117.108 92.3398 116.748 92.0638C116.388 91.7878 114.076 90.6638 114.076 90.6638L118.876 91.7038C118.876 91.7038 119.156 91.5038 119.036 91.3038C118.916 91.1038 114.636 89.4678 114.636 89.4678L119.436 89.7078C119.436 89.7078 119.796 89.2678 119.556 89.1078C119.316 88.9478 114.4 87.8278 114.4 87.8278C114.4 87.8278 119.628 87.3878 119.668 87.1878C119.708 86.9878 119.868 86.7518 119.548 86.7118C119.228 86.6718 112.684 86.0318 112.684 86.0318C112.684 86.0318 114.4 84.9558 114.6 84.6358C114.8 84.3158 115.08 83.6758 114.76 83.6758C114.44 83.6758 114.36 83.8758 113.924 84.1558C113.488 84.4358 111.768 85.1158 111.288 85.5118C110.808 85.9078 109.372 86.9518 109.372 86.9518L90.1398 86.9918L78.1998 77.5718" stroke="#263238" stroke-linecap="round" stroke-linejoin="round"/>
<path d="M119.54 86.7118C119.224 86.6718 112.676 86.0318 112.676 86.0318C112.676 86.0318 114.392 84.9558 114.592 84.6358C114.792 84.3158 115.072 83.6758 114.752 83.6758C114.432 83.6758 114.352 83.8758 113.916 84.1558C113.48 84.4358 111.76 85.1158 111.28 85.5118C110.8 85.9078 109.364 86.9518 109.364 86.9518L90.1319 86.9918L87.9999 85.2998C87.1999 86.7038 85.7039 89.3358 84.7319 91.0718C86.2279 91.9038 87.3599 92.5238 87.5879 92.6158C88.2679 92.8958 109.296 89.4638 109.296 89.4638C109.296 89.4638 110.496 90.0238 111.252 90.4998C112.008 90.9758 116.8 92.4998 116.8 92.4998C116.8 92.4998 117.12 92.3398 116.76 92.0638C116.4 91.7878 114.088 90.6638 114.088 90.6638L118.888 91.7038C118.888 91.7038 119.168 91.5038 119.048 91.3038C118.928 91.1038 114.648 89.4678 114.648 89.4678L119.448 89.7078C119.448 89.7078 119.808 89.2678 119.568 89.1078C119.328 88.9478 114.4 87.8278 114.4 87.8278C114.4 87.8278 119.628 87.3878 119.668 87.1878C119.708 86.9878 119.86 86.7518 119.54 86.7118Z" fill="white" stroke="#263238" stroke-linecap="round" stroke-linejoin="round"/>
<path d="M87.336 62.3678C87.4041 62.285 87.4942 62.2231 87.5959 62.189C87.6975 62.155 87.8067 62.1502 87.911 62.1752C88.0152 62.2002 88.1104 62.2541 88.1855 62.3305C88.2607 62.407 88.3128 62.5031 88.336 62.6078C88.4028 63.0417 88.3805 63.4847 88.2704 63.9097C88.1604 64.3347 87.9649 64.7328 87.696 65.0798C87.256 65.5198 86.856 65.6398 86.856 65.0798C86.967 64.1678 87.1273 63.2625 87.336 62.3678Z" fill="white" stroke="#263238" stroke-linecap="round" stroke-linejoin="round"/>
<path d="M82.424 55.3757C82.2837 57.3224 81.4507 59.1544 80.076 60.5397C78.7952 61.7992 77.3469 62.876 75.772 63.7397C75.772 63.7397 76.004 64.9917 76.476 65.3837C76.948 65.7757 77.884 65.6997 77.884 65.6997C78.4282 67.1876 79.3131 68.5273 80.468 69.6117C82.344 71.3317 84.536 71.1757 85.788 68.5957C87.04 66.0157 87.668 63.4277 87.512 61.9397L87.356 60.4517C87.356 60.4517 83.284 58.1917 82.424 55.3757Z" fill="white" stroke="#263238" stroke-linecap="round" stroke-linejoin="round"/>
<path d="M82.1879 63.1118C82.3867 63.1118 82.5479 62.8253 82.5479 62.4718C82.5479 62.1183 82.3867 61.8318 82.1879 61.8318C81.9891 61.8318 81.8279 62.1183 81.8279 62.4718C81.8279 62.8253 81.9891 63.1118 82.1879 63.1118Z" fill="#263238"/>
<path d="M84.1439 68.2199C84.3428 68.2199 84.5039 67.9334 84.5039 67.5799C84.5039 67.2265 84.3428 66.9399 84.1439 66.9399C83.9451 66.9399 83.7839 67.2265 83.7839 67.5799C83.7839 67.9334 83.9451 68.2199 84.1439 68.2199Z" fill="#263238"/>
<path d="M85.66 63.1118C85.8589 63.1118 86.0201 62.8253 86.0201 62.4718C86.0201 62.1183 85.8589 61.8318 85.66 61.8318C85.4612 61.8318 85.3 62.1183 85.3 62.4718C85.3 62.8253 85.4612 63.1118 85.66 63.1118Z" fill="#263238"/>
<path d="M84.9398 61.792C84.8024 62.2712 84.7616 62.7729 84.8198 63.268C84.9398 63.948 85.4998 65.104 85.0198 65.304C84.8008 65.4039 84.5585 65.4418 84.3194 65.4136C84.0804 65.3854 83.8536 65.2921 83.6638 65.144" stroke="#263238" stroke-linecap="round" stroke-linejoin="round"/>
<path d="M81.1479 61.3159C81.1479 61.3159 81.34 60.0919 82.9439 60.2319" stroke="#263238" stroke-linecap="round" stroke-linejoin="round"/>
<path d="M85.4438 60.6077C85.4438 60.6077 86.9398 59.4077 87.4238 61.6037" stroke="#263238" stroke-linecap="round" stroke-linejoin="round"/>
</svg>
